<?xml version="1.0" encoding="utf-8"?>
<!-- Generator: Adobe Illustrator 26.3.0, SVG Export Plug-In . SVG Version: 6.00 Build 0)  -->
<svg version="1.1" id="레이어_1" xmlns="http://www.w3.org/2000/svg" xmlns:xlink="http://www.w3.org/1999/xlink" x="0px"
	 y="0px" viewBox="0 0 246 120" style="enable-background:new 0 0 246 120;" xml:space="preserve">
<style type="text/css">
	.st0{fill:none;}
	.st1{fill:#00AC76;}
	.st2{fill:#FFFFFF;}
</style>
<rect class="st0" width="246" height="120"/>
<g>
	<path class="st1" d="M77.6,36.6C83.8,47.2,90,57.9,96.2,68.5c1.9-3.3,3.8-6.6,5.8-9.9c2.9,0,5.8,0,8.6,0
		c-4.8,8.2-9.6,16.5-14.4,24.8C90,72.7,83.7,62.1,77.6,51.3c-1.4,2.4-2.8,4.9-4.2,7.3c2,0.1,4-0.1,5.9,0.1c1.2,0.2,2,1.2,2.6,2.1
		c1,1.7,2,3.5,3,5.2c-8.2,0-16.3,0-24.5,0C66.1,56.3,71.8,46.4,77.6,36.6"/>
	<path class="st2" d="M117.5,61.2c0.3-1.2,1.6-2.1,2.8-1.6c1.1,0.4,1.4,1.7,1.8,2.7c2.5,6.8,5.3,13.4,7.6,20.2
		c-1.3-0.1-2.8,0.2-4-0.6c-1.3-0.8-1.3-2.5-2.2-3.6c-2.8-0.1-5.6,0-8.4-0.1c-0.6,1.4-1.2,2.9-1.8,4.3c-1.5,0-2.9,0-4.4,0
		C111.8,75.3,114.7,68.2,117.5,61.2 M119.6,67.4c-0.9,2.3-1.9,4.5-2.8,6.8c1.8,0,3.6,0,5.4,0C121.4,71.9,120.5,69.6,119.6,67.4
		 M149.5,59.4c1.4,0,2.8,0,4.1,0c0,2.5,0,5,0,7.5c2-1.1,4.3-1.7,6.5-1.1c3.9,0.8,6.9,4.5,6.8,8.5c0.1,4.5-4,8.5-8.5,8.4
		c-1.7,0.1-3.3-0.6-4.7-1.3c0,0.2,0,0.6,0,0.8c-1.4,0-2.8,0-4.1,0C149.5,74.6,149.5,67,149.5,59.4 M156.7,70c-3.2,1-3.8,5.9-1,7.7
		c2.7,2.1,7-0.1,6.9-3.5C162.9,71.2,159.5,68.8,156.7,70 M169.5,59.4c1.4,0,2.8,0,4.2,0c0,1.4,0,2.8,0,4.2c-1.4,0-2.8,0-4.2,0
		C169.5,62.2,169.5,60.8,169.5,59.4 M177.2,59.4c1.3,0,3.1-0.3,3.9,1.1c0.5,1.7,0.2,3.4,0.2,5.2c1.4,0,2.8,0,4.2,0
		c-0.1,1.3,0.4,2.9-0.8,3.8c-1,0.7-2.3,0.4-3.4,0.5c0.1,2.1-0.2,4.2,0.2,6.2c0.5,1.7,2.4,2.2,4,2.1c0,1.4,0,2.8,0,4.2
		c-1.8-0.1-3.8-0.2-5.3-1.4c-1.9-1.3-3.1-3.5-3-5.8C177.2,69.9,177.2,64.7,177.2,59.4 M132.3,65.6c4.9,0,9.7,0,14.6,0
		c-2.7,4.2-5.3,8.3-8,12.5c2,0.1,4-0.1,6,0.1c1.8,0.5,1.5,2.6,1.5,4c-5,0.3-10.1,0.1-15.1,0.1c2.6-4.2,5.3-8.3,8-12.5
		c-2.3,0-4.6,0-6.9,0C132.3,68.5,132.3,67.1,132.3,65.6 M169.5,65.7c1.4,0,2.8,0,4.2,0c0,5.6,0,11.2,0,16.7c-1.3-0.2-3,0.5-4.2-0.4
		C169.4,76.6,169.5,71.1,169.5,65.7L169.5,65.7z"/>
</g>
</svg>
