<?xml version="1.0" encoding="utf-8"?>
<!-- Generator: Adobe Illustrator 26.0.3, SVG Export Plug-In . SVG Version: 6.00 Build 0)  -->
<svg version="1.1" id="레이어_1" xmlns="http://www.w3.org/2000/svg" xmlns:xlink="http://www.w3.org/1999/xlink" x="0px"
	 y="0px" viewBox="0 0 246 120" style="enable-background:new 0 0 246 120;" xml:space="preserve">
<style type="text/css">
	.st0{fill:none;}
	.st1{fill:#FFFFFF;}
</style>
<rect class="st0" width="246" height="120"/>
<g id="레이어_2_00000020358522011341786610000001351088084263463579_">
	<g id="Layer_1">
		<path class="st1" d="M70,45.1l0.2,1.4l0,0c0.2,1.3,0.3,2.6,0.2,3.8c0,2.8-0.3,5.7-1,8.4c-0.9,3.7-2.5,7.3-4.7,10.5
			c-2.5,3.6-6.2,7.2-11.5,10.1l-0.6,0.4L52,79.3c-5.3-2.9-9-6.5-11.5-10.1c-2.2-3.2-3.8-6.7-4.7-10.5c-0.7-2.8-1-5.6-1-8.4
			c0-1.3,0.1-2.6,0.2-3.8l0,0l0.2-1.4c0.1-0.5-0.3-0.9-0.7-1c-0.5-0.1-0.9,0.2-1,0.7l-0.2,1.4l0,0c-0.2,1.4-0.3,2.7-0.3,4.1
			c0,3,0.4,5.9,1.1,8.8c1,3.9,2.6,7.7,5,11c2.7,3.8,6.5,7.6,12.1,10.6l1.1,0.6c0.3,0.1,0.6,0.1,0.8,0l1.1-0.6
			c5.6-3,9.4-6.8,12.1-10.6c2.3-3.3,4-7.1,5-11c0.7-2.9,1.1-5.9,1.1-8.8c0-1.4-0.1-2.8-0.3-4.1l0,0l-0.2-1.4c-0.1-0.5-0.5-0.8-1-0.7
			C70.3,44.2,70,44.6,70,45.1L70,45.1z"/>
		<path class="st1" d="M39.9,44.2l12.7-3.9l13,4c0.5,0.1,0.9-0.1,1.1-0.6c0.1-0.5-0.1-0.9-0.6-1.1l-13.3-4c-0.2,0-0.3,0-0.5,0l-13,4
			c-0.5,0.1-0.7,0.6-0.6,1.1C38.9,44.1,39.4,44.3,39.9,44.2L39.9,44.2z"/>
		<path class="st1" d="M33.6,45.4L51.8,81c0.2,0.4,0.7,0.6,1.2,0.4c0.2-0.1,0.3-0.2,0.4-0.4l11.1-20.8l0,0l7.1-14.8
			c0.2-0.4,0-0.9-0.4-1.1c-0.4-0.2-0.9,0-1.1,0.4l0,0L63,59.4L52.6,78.7L35.1,44.6c-0.2-0.4-0.8-0.6-1.2-0.3
			C33.5,44.5,33.4,44.9,33.6,45.4z"/>
		<path class="st1" d="M42.3,61.2h20.3c0.5,0,0.8-0.4,0.8-0.9c0-0.4-0.4-0.8-0.8-0.8H42.3c-0.5,0-0.8,0.4-0.8,0.9
			C41.5,60.9,41.9,61.2,42.3,61.2"/>
		<path class="st1" d="M99,53.8H85.8c-0.5,0-0.9,0.4-0.9,0.9v10.6c0,0.5,0.4,0.9,0.9,0.9H99V68H85.8c-1.5,0-2.6-1.2-2.7-2.6
			c0,0,0,0,0,0V54.7c0-1.5,1.2-2.6,2.6-2.7c0,0,0,0,0,0H99V53.8z"/>
		<path class="st1" d="M123.8,52v1.8h-12.7v5.3h10.2v1.8H111v5.3h12.7V68h-14.5V52H123.8z"/>
		<path class="st1" d="M150,54.7v4.7c0,1.5-1.2,2.6-2.6,2.7c0,0,0,0,0,0h-2.4l5,5.9h-2.4l-5-5.9h-5.8c-0.1,0-0.4,0-0.9-0.1v6h-1.8
			V52.1h13.3C148.8,52.1,150,53.2,150,54.7C150,54.7,150,54.7,150,54.7z M136.7,60.2h10.6c0.5,0,0.8-0.4,0.8-0.8c0,0,0,0,0,0v-4.7
			c0-0.2-0.1-0.4-0.2-0.6c-0.2-0.2-0.4-0.3-0.6-0.3h-10.6c-0.5,0-0.9,0.4-0.9,0.9v4.7c0,0.2,0.1,0.4,0.3,0.6
			C136.3,60.1,136.5,60.2,136.7,60.2z"/>
		<path class="st1" d="M159.5,52h15.9v1.8h-7V68h-1.8V53.8h-7.1V52z"/>
		<path class="st1" d="M185,68V52h1.8V68H185z"/>
		<path class="st1" d="M210.7,52h2.3l-6.6,8l6.7,8h-2.3l-5.9-7h-5.1v7h-1.8V52h1.8v7h5.1L210.7,52z"/>
	</g>
</g>
</svg>
