<svg xmlns="http://www.w3.org/2000/svg" width="48" height="184" viewBox="0 0 48 184">
  <g id="그룹_73" data-name="그룹 73" transform="translate(-596 -6005)">
    <path id="패스_4" data-name="패스 4" d="M1,136H-1V0H1Z" transform="translate(620 6053)" fill="#fff"/>
    <g id="check-circle" transform="translate(596 6005)">
      <path id="패스_2" data-name="패스 2" d="M24,45A21,21,0,1,1,45,24,21,21,0,0,1,24,45Zm0,3A24,24,0,1,0,0,24,24,24,0,0,0,24,48Z" fill="#fff"/>
      <path id="패스_3" data-name="패스 3" d="M24.665,5.42a.7.7,0,0,0-.06.066L14.186,18.761,7.907,12.479a2.25,2.25,0,0,0-3.18,3.18L12.665,23.6a2.25,2.25,0,0,0,3.237-.06L27.878,8.57a2.25,2.25,0,1,0-3.213-3.15Z" transform="translate(8.245 9.49)" fill="#a4e1c5"/>
    </g>
  </g>
</svg>
