<?xml version="1.0" encoding="utf-8"?>
<!-- Generator: Adobe Illustrator 26.0.3, SVG Export Plug-In . SVG Version: 6.00 Build 0)  -->
<svg version="1.1" id="레이어_1" xmlns="http://www.w3.org/2000/svg" xmlns:xlink="http://www.w3.org/1999/xlink" x="0px"
	 y="0px" viewBox="0 0 246 120" style="enable-background:new 0 0 246 120;" xml:space="preserve">
<style type="text/css">
	.st0{fill:none;}
	.st1{fill:url(#路径_00000118394081162326160420000003161328643907016876_);}
	.st2{fill:url(#路径-2_00000150102868178023118850000003455940874062840239_);}
	.st3{fill:url(#路径-3_00000044177705352002871520000011981812647394002076_);}
	.st4{fill:url(#路径-4_00000044150724458081858290000008354751612773839550_);}
	.st5{fill:url(#路径-5_00000176751766223145640440000000233197609670067623_);}
	.st6{fill:url(#路径-6_00000113323064204426003070000015982626901623152008_);}
	.st7{fill:url(#路径-7_00000063596708655806459190000003837284777054585478_);}
	.st8{fill:url(#路径-8_00000067940367178263394670000000351881452689366149_);}
	.st9{fill:url(#路径-9_00000172423179698262767020000011591959794613980032_);}
	.st10{fill:url(#路径-10_00000145761262767670561460000007203855114164894125_);}
	.st11{fill:#FFFFFF;}
</style>
<rect class="st0" width="246" height="120"/>
<g id="图层_2">
	<g id="图层_1-2">
		<g id="资源-3备份-7">
			
				<linearGradient id="路径_00000132058133925757371070000007152736923601673864_" gradientUnits="userSpaceOnUse" x1="-195.0525" y1="172.5191" x2="-192.9611" y2="174.743" gradientTransform="matrix(9.98 0 0 10.61 2004.14 -1796.45)">
				<stop  offset="0" style="stop-color:#EA3671"/>
				<stop  offset="4.000000e-02" style="stop-color:#E03A75"/>
				<stop  offset="0.39" style="stop-color:#82619B"/>
				<stop  offset="0.69" style="stop-color:#3C7EB8"/>
				<stop  offset="0.89" style="stop-color:#1190C9"/>
				<stop  offset="1" style="stop-color:#0197D0"/>
			</linearGradient>
			<path id="路径" style="fill:url(#路径_00000132058133925757371070000007152736923601673864_);" d="M69.7,52.6
				c2.5-1.3,3.5-4.3,2.3-6.9c-1.3-2.5-4.3-3.5-6.9-2.3c-0.7,0.3-1.2,0.8-1.7,1.4C66.2,46.8,68.4,49.5,69.7,52.6L69.7,52.6z"/>
			
				<linearGradient id="路径-2_00000137128001698449394930000011453614886556325558_" gradientUnits="userSpaceOnUse" x1="-197.9675" y1="176.6404" x2="-195.8496" y2="178.1494" gradientTransform="matrix(11.29 0 0 8.09 2284.72 -1384.9301)">
				<stop  offset="0" style="stop-color:#EA3671"/>
				<stop  offset="4.000000e-02" style="stop-color:#E03A75"/>
				<stop  offset="0.39" style="stop-color:#82619B"/>
				<stop  offset="0.69" style="stop-color:#3C7EB8"/>
				<stop  offset="0.89" style="stop-color:#1190C9"/>
				<stop  offset="1" style="stop-color:#0197D0"/>
			</linearGradient>
			<path id="路径-2" style="fill:url(#路径-2_00000137128001698449394930000011453614886556325558_);" d="M58.2,53.2
				c0.4-2.9,1.9-5.5,4.2-7.3c2.6,1.8,4.7,4.4,6,7.3H58.2z"/>
			
				<linearGradient id="路径-3_00000021836096937801789270000008752282439888944528_" gradientUnits="userSpaceOnUse" x1="-200.8152" y1="170.3697" x2="-198.9885" y2="172.1567" gradientTransform="matrix(12.91 0 0 12.73 2639.7998 -2127.3799)">
				<stop  offset="0" style="stop-color:#EA3671"/>
				<stop  offset="4.000000e-02" style="stop-color:#E03A75"/>
				<stop  offset="0.39" style="stop-color:#82619B"/>
				<stop  offset="0.69" style="stop-color:#3C7EB8"/>
				<stop  offset="0.89" style="stop-color:#1190C9"/>
				<stop  offset="1" style="stop-color:#0197D0"/>
			</linearGradient>
			<path id="路径-3" style="fill:url(#路径-3_00000021836096937801789270000008752282439888944528_);" d="M58.1,54.6h10.8
				c0.8,2.5,1.1,5.1,0.7,7.7h-0.1c-2,0-3.9-0.8-5.3-2.2c-0.2,0.4-0.4,0.8-0.7,1.2c1.6,1.5,3.7,2.3,5.9,2.3c-0.2,0.8-0.4,1.7-0.7,2.5
				c-5.9-0.4-10.5-5.3-10.6-11.3C58.1,54.8,58.1,54.7,58.1,54.6z"/>
			
				<linearGradient id="路径-4_00000096749352995393822810000004241029638438799796_" gradientUnits="userSpaceOnUse" x1="-205.0054" y1="170.2258" x2="-203.5626" y2="171.4039" gradientTransform="matrix(16.46 0 0 13.45 3413.6699 -2233.25)">
				<stop  offset="0" style="stop-color:#EA3671"/>
				<stop  offset="4.000000e-02" style="stop-color:#E03A75"/>
				<stop  offset="0.39" style="stop-color:#82619B"/>
				<stop  offset="0.69" style="stop-color:#3C7EB8"/>
				<stop  offset="0.89" style="stop-color:#1190C9"/>
				<stop  offset="1" style="stop-color:#0197D0"/>
			</linearGradient>
			<path id="路径-4" style="fill:url(#路径-4_00000096749352995393822810000004241029638438799796_);" d="M53.3,67.5
				c2.9-0.2,5.6-1.3,7.8-3.2c2,1.8,4.5,2.9,7.1,3.2c-2.1,4.3-5.9,7.6-10.5,9C54.9,74.4,53.3,71.1,53.3,67.5z"/>
			
				<linearGradient id="路径-5_00000080189895513515850610000011322533039164645285_" gradientUnits="userSpaceOnUse" x1="-193.4691" y1="174.0303" x2="-191.3776" y2="176.2541" gradientTransform="matrix(9.98 0 0 10.61 1970.59 -1796.45)">
				<stop  offset="0" style="stop-color:#EA3671"/>
				<stop  offset="4.000000e-02" style="stop-color:#E03A75"/>
				<stop  offset="0.39" style="stop-color:#82619B"/>
				<stop  offset="0.69" style="stop-color:#3C7EB8"/>
				<stop  offset="0.89" style="stop-color:#1190C9"/>
				<stop  offset="1" style="stop-color:#0197D0"/>
			</linearGradient>
			<path id="路径-5" style="fill:url(#路径-5_00000080189895513515850610000011322533039164645285_);" d="M35.6,52.6
				c-2.5-1.4-3.3-4.5-2-7c1.4-2.5,4.5-3.3,7-2c0.5,0.3,1,0.7,1.4,1.2C39.2,46.8,37,49.5,35.6,52.6z"/>
			
				<linearGradient id="路径-6_00000124136819213018927230000016720014934572198292_" gradientUnits="userSpaceOnUse" x1="-196.7773" y1="177.292" x2="-194.6594" y2="178.8143" gradientTransform="matrix(11.29 0 0 8.09 2261.2 -1384.9301)">
				<stop  offset="0" style="stop-color:#EA3671"/>
				<stop  offset="4.000000e-02" style="stop-color:#E03A75"/>
				<stop  offset="0.39" style="stop-color:#82619B"/>
				<stop  offset="0.69" style="stop-color:#3C7EB8"/>
				<stop  offset="0.89" style="stop-color:#1190C9"/>
				<stop  offset="1" style="stop-color:#0197D0"/>
			</linearGradient>
			<path id="路径-6" style="fill:url(#路径-6_00000124136819213018927230000016720014934572198292_);" d="M47.2,53.2
				c-0.4-2.9-1.9-5.5-4.2-7.3c-2.6,1.8-4.7,4.4-6,7.3H47.2z"/>
			
				<linearGradient id="路径-7_00000073683710490474938330000008616412485149609361_" gradientUnits="userSpaceOnUse" x1="-199.8498" y1="171.3197" x2="-198.0098" y2="173.1067" gradientTransform="matrix(12.91 0 0 12.73 2614.8398 -2127.3799)">
				<stop  offset="0" style="stop-color:#EA3671"/>
				<stop  offset="4.000000e-02" style="stop-color:#E03A75"/>
				<stop  offset="0.39" style="stop-color:#82619B"/>
				<stop  offset="0.69" style="stop-color:#3C7EB8"/>
				<stop  offset="0.89" style="stop-color:#1190C9"/>
				<stop  offset="1" style="stop-color:#0197D0"/>
			</linearGradient>
			<path id="路径-7" style="fill:url(#路径-7_00000073683710490474938330000008616412485149609361_);" d="M47.2,54.6H36.4
				c-0.8,2.5-1.1,5.1-0.7,7.7h0.1c2,0,3.9-0.8,5.3-2.2c0.2,0.4,0.4,0.8,0.7,1.2c-1.6,1.5-3.7,2.3-5.9,2.3c0.2,0.8,0.4,1.7,0.7,2.5
				c5.9-0.4,10.5-5.3,10.6-11.3C47.2,54.8,47.2,54.7,47.2,54.6z"/>
			
				<linearGradient id="路径-8_00000155827150944113988770000002132837669476280230_" gradientUnits="userSpaceOnUse" x1="-204.3523" y1="170.5622" x2="-202.8963" y2="171.7402" gradientTransform="matrix(16.46 0 0 13.45 3395.95 -2233.25)">
				<stop  offset="0" style="stop-color:#EA3671"/>
				<stop  offset="4.000000e-02" style="stop-color:#E03A75"/>
				<stop  offset="0.39" style="stop-color:#82619B"/>
				<stop  offset="0.69" style="stop-color:#3C7EB8"/>
				<stop  offset="0.89" style="stop-color:#1190C9"/>
				<stop  offset="1" style="stop-color:#0197D0"/>
			</linearGradient>
			<path id="路径-8" style="fill:url(#路径-8_00000155827150944113988770000002132837669476280230_);" d="M52.1,67.5
				c-2.9-0.2-5.6-1.3-7.8-3.2c-2,1.8-4.5,2.9-7.1,3.2c2.1,4.3,5.9,7.6,10.5,9C50.5,74.4,52.1,71,52.1,67.5L52.1,67.5z"/>
			
				<linearGradient id="路径-9_00000143604168253585583520000015103082278996394398_" gradientUnits="userSpaceOnUse" x1="-188.1771" y1="179.3931" x2="-185.0531" y2="182.0273" gradientTransform="matrix(7.51 0 0 6.21 1446.13 -1052.4301)">
				<stop  offset="0" style="stop-color:#EA3671"/>
				<stop  offset="4.000000e-02" style="stop-color:#E03A75"/>
				<stop  offset="0.39" style="stop-color:#82619B"/>
				<stop  offset="0.69" style="stop-color:#3C7EB8"/>
				<stop  offset="0.89" style="stop-color:#1190C9"/>
				<stop  offset="1" style="stop-color:#0197D0"/>
			</linearGradient>
			<path id="路径-9" style="fill:url(#路径-9_00000143604168253585583520000015103082278996394398_);" d="M52.7,71.6
				c-0.7,2-1.8,3.8-3.4,5.3c2.2,0.5,4.6,0.5,6.8,0C54.6,75.4,53.4,73.6,52.7,71.6z"/>
			
				<linearGradient id="路径-10_00000059298664268867473160000005402914543192002176_" gradientUnits="userSpaceOnUse" x1="-205.9044" y1="166.7468" x2="-205.2293" y2="167.6734" gradientTransform="matrix(18.98 0 0 25.77 3956.0901 -4252.8403)">
				<stop  offset="0" style="stop-color:#EA3671"/>
				<stop  offset="4.000000e-02" style="stop-color:#E03A75"/>
				<stop  offset="0.39" style="stop-color:#82619B"/>
				<stop  offset="0.69" style="stop-color:#3C7EB8"/>
				<stop  offset="0.89" style="stop-color:#1190C9"/>
				<stop  offset="1" style="stop-color:#0197D0"/>
			</linearGradient>
			<path id="路径-10" style="fill:url(#路径-10_00000059298664268867473160000005402914543192002176_);" d="M61.3,45.1
				c-2.4-1.4-5.1-2.2-7.9-2.3v6.6h-1.3v-6.6c-2.8,0.1-5.5,0.9-7.9,2.3c5.4,4.6,6,12.7,1.4,18.1c-0.1,0.1-0.1,0.1-0.2,0.2
				c4.2,3.7,10.6,3.7,14.8,0c-4.7-5.3-4.3-13.4,1-18.1C61.2,45.2,61.3,45.1,61.3,45.1L61.3,45.1z"/>
		</g>
		<path id="COINTIGER" class="st11" d="M89.8,69.7c1.7,0.1,3.4-0.2,5-0.9l-0.5-1.9c-1.3,0.5-2.6,0.8-4,0.8c-4.5,0-7.2-2.9-7.2-7.5
			c0-4.9,2.9-7.7,7.3-7.7c1.3,0,2.6,0.2,3.8,0.8l0.6-2c-1.4-0.6-2.9-0.9-4.5-0.8c-5.1-0.3-9.5,3.6-9.8,8.7c0,0.4,0,0.8,0,1.2
			C80.6,66.4,84.5,69.7,89.8,69.7z M105.2,69.7c4.8,0,8.7-3.5,8.7-9.9c0-5.6-3.3-9.5-8.5-9.5s-8.7,3.9-8.7,9.9
			C96.7,65.8,100.2,69.7,105.2,69.7z M105.3,67.7c-3.8,0-6-3.6-6-7.6s2-7.8,6-7.8s6,3.9,6,7.7C111.3,64.2,109.1,67.7,105.3,67.7z
			 M119.5,69.4V50.6H117v18.8H119.5z M126,69.4v-8.1c0-3.1,0-5.4-0.2-7.7h0.1c1,2.2,2.2,4.3,3.5,6.3l6,9.5h2.4V50.6h-2.3v7.9
			c0,2.9,0,5.2,0.3,7.7h-0.1c-1-2.1-2.1-4.1-3.3-6.1l-6-9.5h-2.6v18.8H126z M149.6,69.4V54.2h5.1v-3.6h-14.4v3.6h5.1v15.2H149.6z
			 M161.3,69.4V50.6H157v18.8H161.3z M174.4,69.6c2.1,0,4.2-0.4,6.3-1.1v-9.9h-7V62h2.9v4c-0.7,0.2-1.4,0.3-2.1,0.3
			c-3.1,0.2-5.8-2.2-6-5.3c0-0.3,0-0.6,0-0.9c0-4.1,2.6-6.1,6.2-6.1c1.5-0.1,3,0.2,4.3,0.8l0.9-3.4c-1.7-0.6-3.4-0.9-5.2-0.9
			c-6.2,0-10.7,3.6-10.7,9.8c-0.1,2.5,0.9,5,2.6,6.9C168.8,68.9,171.6,69.8,174.4,69.6z M195.9,69.4v-3.5h-7.7v-4.5h6.9V58h-6.9
			v-3.9h7.3v-3.5H184v18.8H195.9z M203,69.4V62h1.3c1.8,0,2.6,0.6,3.1,3c0.3,1.5,0.8,3,1.3,4.4h4.3c-0.4-0.7-0.9-3.2-1.5-5.3
			c-0.2-1.5-1.1-2.8-2.5-3.5v-0.1c2-0.7,3.3-2.5,3.3-4.6c0.1-1.5-0.6-3-1.8-4c-1.3-1.1-3.3-1.5-6.1-1.5c-1.9,0-3.8,0.1-5.7,0.4v18.5
			L203,69.4z M204.7,58.9H203v-5.1c0.6-0.1,1.3-0.2,1.9-0.1c1.9,0,3.1,0.9,3.1,2.6C208.1,58.1,206.8,58.9,204.7,58.9z"/>
	</g>
</g>
</svg>
