<?xml version="1.0" encoding="utf-8"?>
<!-- Generator: Adobe Illustrator 26.0.3, SVG Export Plug-In . SVG Version: 6.00 Build 0)  -->
<svg version="1.1" id="레이어_1" xmlns="http://www.w3.org/2000/svg" xmlns:xlink="http://www.w3.org/1999/xlink" x="0px"
	 y="0px" viewBox="0 0 246 120" style="enable-background:new 0 0 246 120;" xml:space="preserve">
<style type="text/css">
	.st0{fill:none;}
	.st1{fill-rule:evenodd;clip-rule:evenodd;fill:#FFFFFF;}
</style>
<rect class="st0" width="246" height="120"/>
<g>
	<path class="st1" d="M59.5,63c-0.5,0.3-1.2,0.4-1.7,0.1c-0.6-0.3-1-1.2-1-2.3v-3.4c0-1.6-0.6-2.8-1.7-3.1c-1.8-0.5-3.2,1.7-3.7,2.5
		l-3.2,5.2v-6.4c0-1.5-0.5-2.3-1.4-2.6c-0.6-0.2-1.5-0.1-2.4,1.2L37.2,66c-1-1.8-1.5-3.9-1.5-6c0-7,5.6-12.7,12.5-12.7
		S60.7,53,60.7,60c0,0,0,0,0,0c0,0,0,0,0,0C60.8,61.4,60.3,62.5,59.5,63L59.5,63z M63.5,60L63.5,60L63.5,60L63.5,60
		c0-8.6-6.9-15.5-15.2-15.5C39.8,44.5,33,51.5,33,60c0,8.5,6.8,15.5,15.2,15.5c3.9,0,7.5-1.5,10.4-4.1c0.6-0.5,0.6-1.4,0.1-2
		c-0.5-0.6-1.4-0.6-1.9-0.1c0,0,0,0,0,0c-2.3,2.2-5.3,3.4-8.5,3.4c-3.7,0-7-1.6-9.3-4.2L45.5,58v4.8c0,2.3,0.9,3.1,1.7,3.3
		c0.8,0.2,1.9,0.1,3.1-1.9l3.6-5.8c0.1-0.2,0.2-0.3,0.3-0.5v2.9c0,2.2,0.9,3.9,2.4,4.7c1.4,0.8,3.1,0.7,4.5-0.2
		C62.7,64.3,63.6,62.4,63.5,60z M84.7,54.7c0.4,0.2,0.7,0.7,0.7,1.2c0,0.7-0.6,1.3-1.3,1.3c-0.2,0-0.3,0-0.5-0.1
		c-0.8-0.6-1.8-1-2.9-1c-2.5,0-4.3,2.1-4.3,4.7c0,2.6,1.8,4.6,4.3,4.6c1.3,0,2.4-0.5,3.2-1.3c0.2-0.2,0.5-0.2,0.8-0.2
		c0.7,0,1.2,0.5,1.2,1.2c0,0.4-0.3,0.8-0.6,1.1c-1.2,1-2.9,1.7-4.6,1.7c-3.9,0-7.1-3.2-7.1-7.2s3.2-7.2,7.1-7.2
		C82.2,53.5,83.6,53.9,84.7,54.7z M91.8,57.7c2.7,0,4.9,2.3,4.9,5c0,2.8-2.2,5.1-4.9,5.1c-2.8,0-5.1-2.4-5.1-5.1
		C86.8,60,89.1,57.7,91.8,57.7z M91.8,65.4c1.2,0,2.2-1.1,2.2-2.6c0-1.5-1-2.5-2.2-2.5c-1.3,0-2.3,0.9-2.3,2.5
		C89.5,64.3,90.6,65.4,91.8,65.4z M98.4,66.3v-7.1c0-0.8,0.6-1.4,1.4-1.4c0.8,0,1.4,0.6,1.4,1.4v7.1c0,0.8-0.6,1.4-1.4,1.4
		S98.4,67.1,98.4,66.3z M98.2,55.2c0-0.9,0.7-1.7,1.6-1.7c0.9,0,1.6,0.7,1.6,1.7c0,0.9-0.7,1.6-1.6,1.6
		C98.9,56.8,98.2,56.1,98.2,55.2z M106.5,62.5v3.8c0,0.8-0.6,1.4-1.4,1.4c-0.8,0-1.4-0.6-1.4-1.4v-7.4c0-0.6,0.5-1.1,1.1-1.1
		c0.6,0,1,0.5,1,1.1c1.1-1,2.1-1.2,3-1.2c2.8,0,4,2.1,4,4.4v4.2c0,0.8-0.6,1.4-1.4,1.4s-1.4-0.6-1.4-1.4v-3.8c0-1.2-0.1-2.2-1.9-2.2
		C107,60.3,106.5,61.3,106.5,62.5L106.5,62.5z M121.8,63.9c-0.3,0-0.5-0.1-0.7-0.3l-3.2-3.5v6.2c0,0.8-0.6,1.4-1.4,1.4
		s-1.4-0.6-1.4-1.4V54c0.1-0.2,0.3-0.4,0.5-0.3c0.2,0,0.4,0.2,0.6,0.3l5.1,5.8c0.1,0.2,0.3,0.3,0.4,0.3c0.1,0,0.3-0.1,0.4-0.3
		l5.1-5.8c0.1-0.1,0.3-0.3,0.6-0.3s0.4,0.1,0.5,0.3v12.3c0,0.8-0.6,1.4-1.4,1.4c-0.8,0-1.4-0.6-1.4-1.4v-6.2l-3.2,3.5
		C122.3,63.8,122.1,63.9,121.8,63.9L121.8,63.9z M135.1,65.4c1.2,0,2.3-1.1,2.3-2.6c0-1.5-1.1-2.5-2.3-2.5s-2.2,1-2.2,2.5
		C132.9,64.2,133.8,65.4,135.1,65.4z M138,66.6l0-0.3c-0.5,1.1-2.2,1.5-3.3,1.5c-2.6,0-4.5-2.4-4.5-5.1c0-2.8,2-5,4.6-5
		c0.5,0,2,0.1,3.2,1.5l0-0.3c0-0.6,0.5-1.1,1-1.1c0.6,0,1.1,0.5,1.1,1.1v7.7c0,0.6-0.5,1.1-1.1,1.1C138.4,67.7,138,67.2,138,66.6
		L138,66.6z M147.8,60.3h-0.3c-1.7,0.1-2.1,1.1-2.1,2.2v3.8c0,0.8-0.6,1.4-1.4,1.4s-1.4-0.6-1.4-1.4v-7.4c0-0.6,0.5-1.1,1.1-1.1
		c0.6,0,1,0.5,1,1.1c1-1,1.9-1.2,2.7-1.2h0.3c0.7,0,1.3,0.6,1.3,1.3C149,59.7,148.4,60.3,147.8,60.3L147.8,60.3z M158.4,65.7
		c0.1,0.2,0.2,0.4,0.2,0.7c0,0.7-0.7,1.4-1.4,1.4c-0.5,0-0.9-0.4-1.2-0.8l-3.2-3.7v3c0,0.8-0.6,1.4-1.4,1.4c-0.8,0-1.4-0.6-1.4-1.4
		V55.1c0-0.8,0.6-1.4,1.4-1.4c0.8,0,1.4,0.6,1.4,1.4v7l3.2-3.5c0.3-0.4,0.7-0.7,1.2-0.7c0.7,0,1.3,0.6,1.3,1.4c0,0.2,0,0.4-0.2,0.6
		l-2.5,2.7L158.4,65.7L158.4,65.7z M163.8,60.3c-0.8,0-2,0.4-2,1.6h4C165.8,60.7,164.5,60.3,163.8,60.3L163.8,60.3z M167.4,63.6
		h-5.6c0,1.7,1.6,1.9,2.3,1.9c0.5,0,1.2-0.1,1.8-0.3c0.2-0.1,0.5-0.2,0.7-0.2c0.6,0,1.1,0.5,1.1,1.1c0,0.4-0.3,0.8-0.6,1
		c-0.9,0.6-2,0.8-3,0.8c-2.8,0-5.1-1.5-5.1-5c0-2.7,1.4-5.2,4.7-5.2c2.7,0,4.7,1.7,4.7,4.8C168.5,63.1,168,63.6,167.4,63.6
		L167.4,63.6z M175.1,67.9h-0.8c-2.1,0-3.3-0.9-3.3-4.2v-3.4h-0.7c-0.7,0-1.2-0.6-1.2-1.3c0-0.7,0.6-1.3,1.2-1.3h0.7v-2.6
		c0-0.8,0.6-1.4,1.4-1.4c0.8,0,1.4,0.6,1.4,1.4v2.6h1.1c0.7,0,1.2,0.6,1.2,1.3c0,0.7-0.6,1.3-1.2,1.3h-1.1v2.8
		c0,1.9,0.1,2.3,0.9,2.3h0.4c0.7,0,1.2,0.5,1.2,1.2C176.3,67.3,175.7,67.9,175.1,67.9L175.1,67.9z M188.4,54.7
		c0.4,0.2,0.7,0.7,0.7,1.2c0,0.7-0.6,1.3-1.3,1.3c-0.2,0-0.3,0-0.5-0.1c-0.8-0.6-1.8-1-2.9-1c-2.5,0-4.3,2.1-4.3,4.7
		c0,2.6,1.8,4.6,4.3,4.6c1.3,0,2.4-0.5,3.2-1.3c0.2-0.2,0.5-0.2,0.8-0.2c0.7,0,1.2,0.5,1.2,1.2c0,0.4-0.3,0.8-0.6,1.1
		c-1.2,1-2.9,1.7-4.6,1.7c-3.9,0-7.1-3.2-7.1-7.2s3.2-7.2,7.1-7.2C185.9,53.5,187.3,53.9,188.4,54.7L188.4,54.7z M195.4,65.4
		c1.2,0,2.3-1.1,2.3-2.6c0-1.5-1.1-2.5-2.3-2.5c-1.2,0-2.2,1-2.2,2.5C193.2,64.2,194.2,65.4,195.4,65.4L195.4,65.4z M198.3,66.6
		l0-0.3c-0.5,1.1-2.2,1.5-3.3,1.5c-2.6,0-4.5-2.4-4.5-5.1c0-2.8,2-5,4.6-5c0.5,0,2,0.1,3.2,1.5l0-0.3c0-0.6,0.5-1.1,1-1.1
		c0.6,0,1.1,0.5,1.1,1.1v7.7c0,0.6-0.5,1.1-1.1,1.1C198.8,67.7,198.3,67.2,198.3,66.6z M208,65.4c1.2,0,2.2-1.2,2.2-2.6
		c0-1.5-1-2.5-2.2-2.5s-2.3,1-2.3,2.5C205.8,64.3,206.8,65.4,208,65.4z M205.8,67v3.5c0,0.8-0.6,1.4-1.4,1.4c-0.8,0-1.4-0.6-1.4-1.4
		V58.9c0-0.6,0.5-1.1,1.1-1.1c0.6,0,1,0.5,1,1.2c1-1.1,2.3-1.3,3.2-1.3c2.7,0,4.6,2.3,4.6,5c0,2.8-1.9,5.1-4.5,5.1
		C207.7,67.9,206.5,67.6,205.8,67L205.8,67z"/>
</g>
</svg>
