<?xml version="1.0" encoding="utf-8"?>
<!-- Generator: Adobe Illustrator 26.3.0, SVG Export Plug-In . SVG Version: 6.00 Build 0)  -->
<svg version="1.1" id="레이어_1" xmlns="http://www.w3.org/2000/svg" xmlns:xlink="http://www.w3.org/1999/xlink" x="0px"
	 y="0px" viewBox="0 0 246 120" style="enable-background:new 0 0 246 120;" xml:space="preserve">
<style type="text/css">
	.st0{fill:none;}
	.st1{fill:#00D0C4;}
	.st2{fill:#FFFFFF;}
</style>
<rect class="st0" width="246" height="120"/>
<g>
	<path class="st1" d="M148,51.6l-0.5,3.4h-13.9c-1,0-1.9,0.8-2.1,1.7l-0.3,1.9h12.2l-0.5,3.4h-12.2l-1.5,8.7h-3.4l2.4-13.9
		c0.5-2.9,3-5,6-5.1H148z M146,70.7l3.4-18.9h3.4l-3.4,18.9H146z M173.1,51.7l-3.4,18.9l-2.9-2.6l-10.6-9.4l-2.1,12h-3.4l3.3-18.9
		l2.9,2.6l10.6,9.4l2.2-12.1L173.1,51.7z M176.9,56.7l-0.3,1.7h12.2l-0.5,3.4H176l-0.7,3.6c-0.2,0.8,0.3,1.5,1.1,1.7h14.2l-0.5,3.4
		h-13.8c-2.3,0.1-4.2-1.7-4.4-4c0-0.3,0-0.8,0.1-1.1l1.5-8.7c0.5-2.9,3-5,6-5.1h13.8l-0.5,3.4H179C178,55.1,177.1,55.8,176.9,56.7z
		 M213,51.7l-9,9.5l5.7,9.5h-4.2l-4-6.6l-6.3,6.6h-4.2l8.9-9.5l-5.7-9.5h4.2l4,6.7l6.4-6.7L213,51.7"/>
	<path class="st2" d="M88.4,51.7c4.2-0.1,7.8,3.2,8.1,7.4c0,0.7,0,1.3-0.2,2.1c-0.4,2.3-1.6,4.5-3.4,6.1c-0.2,0.2-0.4,0.3-0.7,0.5
		c-2,1.7-4.5,2.7-7.2,2.8h-9.5l3.4-19.1C78.9,51.6,88.4,51.7,88.4,51.7z M79.5,67.3h6.1c3.5-0.1,6.5-2.6,7.2-6.1
		c0.7-2.7-1.1-5.3-3.7-6c-0.4-0.1-0.9-0.1-1.3-0.1h-6.1C81.6,55.1,79.5,67.3,79.5,67.3z M95.9,70.7l3.4-18.9h3.4l-3.4,18.9H95.9z
		 M105.7,61.2c-0.7,2.7,1.1,5.3,3.7,6c0.4,0.1,0.9,0.1,1.3,0.1h6.1l0.7-3.6h-6.1l0.7-3.4h9.4l-1.9,10.5H110
		c-4.2,0.1-7.8-3.2-8.1-7.5c0-0.7,0-1.3,0.2-2c1.1-5.3,5.7-9.3,11.1-9.5h9.5l-0.5,3.4h-9.5C109.3,55.2,106.3,57.7,105.7,61.2z
		 M69.5,56.3c0,1.5-0.2,3-0.4,4.6c-2,10.5-7.9,15.7-18,15.7h-6.3v-0.1l1.5-7.2h4.4c5.4,0,8.7-3,9.8-9.3c0.1-0.4,0.1-0.8,0.2-1.2
		l8.7-5C69.4,54.6,69.5,55.4,69.5,56.3z M66.4,47.3l-7.7,4.5c-1.3-0.8-2.8-1.2-4.5-1.1H41.6v-0.2l1.5-7h13.1c1.6,0,3.4,0.2,4.9,0.7
		c1.9,0.5,3.6,1.4,4.9,2.7C66.2,46.9,66.3,47,66.4,47.3z"/>
	<path class="st1" d="M54,56.8L52.8,64h-5.3l-2.6,12.3v0.1H33l4.5-6l2.9-13.6H54z"/>
	<path class="st2" d="M120.9,70.7l3.4-19.1h3.4l-3.4,19.1H120.9z"/>
</g>
</svg>
