<?xml version="1.0" encoding="utf-8"?>
<!-- Generator: Adobe Illustrator 26.0.3, SVG Export Plug-In . SVG Version: 6.00 Build 0)  -->
<svg version="1.1" id="레이어_1" xmlns="http://www.w3.org/2000/svg" xmlns:xlink="http://www.w3.org/1999/xlink" x="0px"
	 y="0px" viewBox="0 0 246 120" style="enable-background:new 0 0 246 120;" xml:space="preserve">
<style type="text/css">
	.st0{fill:none;}
	.st1{fill:#1AB394;}
</style>
<rect class="st0" width="246" height="120"/>
<g>
	<path class="st1" d="M53.5,38.8c0.4-0.3,0.8-0.5,1.3-0.7c7.2,4.2,14.5,8.4,21.7,12.5c0,6.3,0,12.5,0,18.8
		c-7.3,4.2-14.5,8.4-21.7,12.6c-7.3-4.2-14.5-8.4-21.8-12.6c0-6.2,0-12.5,0-18.7c0.4-0.2,0.7-0.4,1.1-0.6
		C40.6,46.3,47.1,42.5,53.5,38.8z M54.6,43.4C49,46.6,43.5,49.8,38,53c-0.2,0.1-0.5,0.2-0.6,0.5c4.3,2.4,8.5,4.9,12.8,7.4l0.3,0.1
		c1.3-1.6,2.6-3.1,3.9-4.7c-2.5-1.4-5-2.9-7.5-4.3c0.3-0.3,0.8-0.5,1.1-0.8c1.2-0.7,2.4-1.5,3.6-2.2c6.8,4,13.7,7.9,20.6,11.8
		c0-2.5,0-4.9,0-7.4c-5.7-3.3-11.4-6.6-17.1-9.9C55,43.3,54.8,43.2,54.6,43.4z M58.7,58.7c-1.3,1.6-2.6,3.2-3.9,4.8
		c2.4,1.3,4.7,2.7,7,4c0,0,0,0.1,0,0.2c-1.4,0.9-2.8,1.8-4.2,2.7c-0.2,0.1-0.3,0.3-0.5,0.2c-6.6-3.8-13.1-7.6-19.7-11.4
		c0,2.4,0,4.9,0,7.3c5.7,3.4,11.5,6.7,17.3,10c0.3,0.2,0.5-0.1,0.8-0.2c5.6-3.2,11.2-6.5,16.8-9.7c0-0.1,0-0.2,0-0.3
		c-4.3-2.5-8.7-5-13-7.5C59,58.8,58.8,58.7,58.7,58.7z"/>
	<path class="st1" d="M125,47.8c2.5-0.3,5.2,0,7.5,1.1c2,1,3.7,2.7,4.5,4.8c1.2,2.8,1.3,5.9,1.1,8.8c-0.3,2.8-1.3,5.6-3.4,7.5
		s-5,2.7-7.8,2.7c-2.6,0-5.4-0.5-7.6-2.2c-2.1-1.6-3.4-4.2-3.8-6.8c-0.4-2.4-0.4-4.8,0-7.1c0.4-2.5,1.6-5,3.7-6.6
		C120.8,48.7,122.9,48,125,47.8z M125.1,52.2c-1.4,0.3-2.6,1.2-3.3,2.5c-1,1.7-1.2,3.7-1.2,5.6c0,1.9,0.3,4,1.3,5.6
		c0.8,1.3,2.1,2.1,3.6,2.3c1.9,0.3,4.1,0,5.5-1.4c1.3-1.4,1.8-3.3,1.9-5.1c0.1-1.6,0.1-3.3-0.3-4.9c-0.3-1.6-1.1-3.1-2.5-4
		C128.5,51.9,126.7,51.8,125.1,52.2L125.1,52.2z"/>
	<path class="st1" d="M90.3,48.1h5.1c0,3.2,0,6.3,0,9.5c3.2,0,6.4,0,9.6,0c0-3.2,0-6.3,0-9.5h5.1c0,8.1,0,16.2,0,24.3H105
		c0-3.5,0-7,0-10.5c-3.2,0-6.4,0-9.6,0c0,3.5,0,7,0,10.5h-5.1C90.3,64.3,90.3,56.2,90.3,48.1z"/>
	<path class="st1" d="M140.9,48.1h18.3c0,1.4,0,2.9,0,4.3c-2.2,0-4.4,0-6.6,0c0,6.7,0,13.3,0,20h-5.1c0-0.7,0-1.4,0-2.1
		c0-0.7,0-1.4,0-2.1c0-3.9,0-7.7,0-11.6c0-0.5,0-1,0-1.4c0.1-0.9,0-1.9,0-2.8c-2.2-0.1-4.4,0-6.6,0
		C140.9,50.9,140.9,49.5,140.9,48.1z"/>
	<path class="st1" d="M163,48.1h7.4c2.5,0,5.1,0.1,7.3,1.3c1.5,0.8,2.5,2.3,2.6,3.9c0.1,1.1,0.1,2.2-0.3,3.3
		c-0.4,1.3-1.5,2.4-2.8,2.8c-0.2,0.1-0.5,0-0.6,0.3c1.4,0.3,2.8,0.9,3.5,2.1c0.9,1.5,1,3.4,0.7,5.1c-0.4,2-1.8,3.6-3.6,4.5
		c-2.2,1.1-4.6,1-7,1H163C163,64.3,163,56.2,163,48.1z M168.1,52.3c0,1.8,0,3.6,0,5.4c1.1,0.1,2.1,0,3.2,0c1,0,2.1-0.1,3-0.8
		c0.8-0.7,0.9-1.8,0.7-2.7c-0.2-0.9-1-1.4-1.8-1.6C171.5,52.1,169.8,52.3,168.1,52.3L168.1,52.3z M168.1,61.8c0,2.1,0,4.2,0,6.3
		c1.4,0,2.7,0,4.1,0c1-0.1,2-0.3,2.7-1.1c0.7-0.8,0.8-1.9,0.6-2.9c-0.2-1.1-1.2-1.9-2.3-2.1C171.6,61.6,169.8,61.8,168.1,61.8
		L168.1,61.8z"/>
	<path class="st1" d="M185.8,48.1h5.1c0,8.1,0,16.2,0,24.3h-5.1C185.8,64.3,185.8,56.2,185.8,48.1z"/>
	<path class="st1" d="M194.7,48.1c6.1,0,12.2,0,18.3,0c0,1.4,0,2.9,0,4.3c-2.2,0-4.4,0-6.6,0c0,6.7,0,13.3,0,20c-1.7,0-3.4,0-5.2,0
		c0-6.7,0-13.3,0-20c-2.2,0-4.4,0-6.6,0C194.7,50.9,194.7,49.5,194.7,48.1z"/>
</g>
</svg>
