<svg id="레이어_1" data-name="레이어 1" xmlns="http://www.w3.org/2000/svg" viewBox="0 0 2340.3 542"><defs><style>.cls-1{fill:#49c48c;}.cls-2,.cls-3{fill:none;stroke:#fff;stroke-miterlimit:10;stroke-width:50px;}.cls-3{opacity:0.5;}.cls-4{fill:#fff;}</style></defs><circle class="cls-1" cx="281.9" cy="271" r="250"/><path class="cls-2" d="M285.34,439.25a167.74,167.74,0,0,1-65.14-13.07"/><path class="cls-3" d="M285.34,102.75a168.25,168.25,0,0,1,0,336.5"/><path class="cls-2" d="M127.7,330a168.38,168.38,0,0,1,157.64-227.2"/><path class="cls-3" d="M127.7,330a168.82,168.82,0,0,0,92.5,96.23"/><path class="cls-2" d="M117.09,271A168.25,168.25,0,0,1,285.34,102.75"/><path class="cls-4" d="M305.55,246l-20.21,48.52V296H426.41c-11.86,67.11-70.61,118.25-141.07,118.25v50c106.56,0,193.25-86.69,193.25-193.25V246Z"/><polygon class="cls-4" points="502.43 295.88 502.43 295.79 502.33 295.88 502.43 295.88"/><polygon class="cls-4" points="511.59 245.99 456.66 245.99 456.66 295.88 490.81 295.88 511.59 245.99"/><path class="cls-4" d="M668.18,270.7V245.54h61.19V325H708.74l-2.92-18.72q-16.52,22.55-46.3,22.55-30.18,0-48.9-20.94T591.9,252.18q0-35.52,18.82-57.26t53.43-21.84q25.77,0,43.28,12.78T728.86,223H698.17A29.77,29.77,0,0,0,687,206q-8.87-6.94-21.64-6.94-19.53,0-30.89,13.68T623.09,253q0,22,10.37,36t31.6,13.89q14.09,0,23.35-8T702,270.7Z"/><path class="cls-4" d="M754.16,251q3.52-22.84,15.4-30.49t32.5-7.75q20.84,0,32.91,7.85t12.08,23.55V302.9q0,15.19,6.34,17.71V325h-31.6a57,57,0,0,1-2.72-12.38v-.9q-13.68,16.1-34.52,16.1-14.49,0-24.25-8.05t-9.76-23.95q0-30,31.7-34.62l25.86-3.93q10.06-1.5,10.07-9.16,0-12.47-17.62-12.47-9.76,0-13.58,3.82T782.14,251Zm64,21a26.86,26.86,0,0,1-8.56,3.62,93.09,93.09,0,0,1-10.87,2.31q-8.75,1.21-14.09,4.73t-5.23,11.27q0,6.94,3.82,10.07t10.27,3.12a25.65,25.65,0,0,0,17.31-6.24q7.33-6.24,7.35-15Z"/><path class="cls-4" d="M862.78,236V215.55h14.9v-29h28.88v29h17.71V236H906.56v59.88c0,4,.77,6.51,2.32,7.44s4.93,1.41,10,1.41c1.74,0,3.66-.1,5.74-.3v22q-8.37.3-14.5.3-19.32,0-25.86-5.33T877.68,303V236Z"/><path class="cls-4" d="M965.07,278.24q1.41,14.2,7.65,20.43t17.61,6.24q14.89,0,19.32-12.47h29.79q-6.64,18.81-18.92,27.17t-30.69,8.25q-25.58,0-39.66-14.8t-14-43.17q0-26.05,13.68-41.56t38.65-15.6q52.23,0,52.23,62v3.52Zm.9-18.81h45q-3.23-22.14-22.85-22.14-9.75,0-15.09,5.53T966,259.43Z"/><path class="cls-4" d="M1049.74,215.55h30.7l17,79.1,15.1-79.1h28.88l16.81,79.1,17.81-79.1h29.79L1173.62,325h-29.78l-17.31-80-16.41,80h-29.79Z"/><path class="cls-4" d="M1219,251q3.52-22.84,15.4-30.49t32.5-7.75q20.84,0,32.91,7.85t12.07,23.55V302.9q0,15.19,6.34,17.71V325h-31.59a56.46,56.46,0,0,1-2.72-12.38v-.9q-13.69,16.1-34.52,16.1-14.49,0-24.25-8.05t-9.76-23.95q0-30,31.7-34.62l25.86-3.93q10.06-1.5,10.06-9.16,0-12.47-17.61-12.47-9.77,0-13.58,3.82T1246.92,251Zm64,21a26.69,26.69,0,0,1-8.55,3.62,93.53,93.53,0,0,1-10.87,2.31q-8.76,1.21-14.09,4.73t-5.23,11.27q0,6.94,3.82,10.07t10.27,3.12a25.66,25.66,0,0,0,17.31-6.24q7.34-6.24,7.34-15Z"/><path class="cls-4" d="M1343.47,368.62V345.67a44,44,0,0,0,5.54.3q11,0,13.89-4.33t4.73-12.88l-40.26-113.21h32l23.85,80.91,23-80.91h30.69l-43.47,121.57q-7.46,20.82-15,26.36t-22.64,5.44Q1348.51,368.92,1343.47,368.62Z"/><path class="cls-4" d="M1516.74,176.91h67q22.14,0,33.91,13t11.88,33.31q0,22-13,35.32t-33.81,13.28h-35.32V325h-30.7Zm30.7,26v43h28.28q22.63,0,22.64-22.14,0-12-6.64-16.4t-20.23-4.43Z"/><path class="cls-4" d="M1649.43,325V215.55H1677v19.83q6.13-12.48,13.18-17.52t17.71-5.13q1.41,0,5.84.3v29.29q-4.34-.3-7.45-.3-28,0-28,26V325Z"/><path class="cls-4" d="M1721.74,270.3q0-26.48,15.4-42t40.56-15.6q23.94,0,40,15t16,42.57q0,25.45-14.9,41.56t-41,16q-24.06,0-40.06-15T1721.74,270.3Zm29.79.3q0,33.3,26.17,33.31t26.16-33.31q0-33.32-26.16-33.31T1751.53,270.6Z"/><path class="cls-4" d="M1840.14,236V215.55H1855v-29h28.88v29h17.71V236h-17.71v59.88c0,4,.77,6.51,2.31,7.44s4.93,1.41,10,1.41q2.61,0,5.73-.3v22q-8.36.3-14.49.3-19.32,0-25.86-5.33T1855,303V236Z"/><path class="cls-4" d="M1912.15,270.3q0-26.48,15.4-42t40.55-15.6q24,0,40,15t16,42.57q0,25.45-14.9,41.56t-41.06,16q-24,0-40-15T1912.15,270.3Zm29.79.3q0,33.3,26.16,33.31t26.17-33.31q0-33.32-26.17-33.31T1941.94,270.6Z"/><path class="cls-4" d="M2106.83,284.39h29.79q-3.23,20.73-15.8,32.1t-34.52,11.37q-22.85,0-36.63-13.89T2036,272.11q0-26.67,13-43t38.95-16.41q19.52,0,32.71,10.07t16,31.8h-29.79a26.78,26.78,0,0,0-5.74-12.28q-4.12-5-12.37-5-22.95,0-22.95,34.31,0,32.31,21.54,32.31a19,19,0,0,0,13.78-5.64A18.66,18.66,0,0,0,2106.83,284.39Z"/><path class="cls-4" d="M2148.54,270.3q0-26.48,15.4-42t40.56-15.6q23.94,0,39.95,15t16,42.57q0,25.45-14.89,41.56t-41.06,16q-24.06,0-40.05-15T2148.54,270.3Zm29.79.3q0,33.3,26.17,33.31t26.16-33.31q0-33.32-26.16-33.31T2178.33,270.6Z"/><path class="cls-4" d="M2279.52,325V176.91h28.89V325Z"/></svg>