<?xml version="1.0" encoding="utf-8"?>
<!-- Generator: Adobe Illustrator 26.3.0, SVG Export Plug-In . SVG Version: 6.00 Build 0)  -->
<svg version="1.1" id="레이어_1" xmlns="http://www.w3.org/2000/svg" xmlns:xlink="http://www.w3.org/1999/xlink" x="0px"
	 y="0px" viewBox="0 0 246 120" style="enable-background:new 0 0 246 120;" xml:space="preserve">
<style type="text/css">
	.st0{fill:none;}
	.st1{fill:#FFBE40;}
</style>
<rect class="st0" width="246" height="120"/>
<g>
	<path id="形状_756" class="st1" d="M125.5,67.6c0-1.2,1-2.2,2.2-2.1s2.2,1,2.1,2.2c0,1.2-1,2.1-2.2,2.1
		C126.5,69.8,125.5,68.8,125.5,67.6z M152.5,50.1v4.4h-6.7c-2.2,0-3.8,0.5-4.7,1.5c-0.8,1-1.2,2.5-1.2,4.4c0,2.2,0.7,3.8,2,4.9
		c0.5,0.4,1.2,0.7,1.8,0.8c0.9,0.2,1.8,0.3,2.7,0.2h6v4.4h-7.6c-1.7,0.1-3.3-0.2-4.9-0.6c-1.2-0.4-2.3-1.2-3.2-2.2
		c-1.8-2.1-2.7-4.8-2.6-7.6c0-3.7,1-6.5,3.1-8.3c0.9-0.7,1.9-1.3,3-1.6c1.5-0.3,3-0.5,4.5-0.5H152.5z M166.2,49.9
		c3.7,0,6.5,1.1,8.3,3.3c1.7,2.2,2.6,4.9,2.5,7.6c0.1,2.9-1,5.8-3.1,7.8c-1.9,1.8-4.5,2.7-7.7,2.7c-3.4,0-6-1-8-3
		c-1.8-1.8-2.7-4.4-2.7-7.9c-0.1-2.7,0.8-5.2,2.6-7.3C159.9,51,162.6,49.9,166.2,49.9L166.2,49.9z M166.2,54.2c-3.4,0-5,2.1-5,6.4
		c-0.1,1.4,0.2,2.7,0.8,4c0.9,1.5,2.5,2.4,4.3,2.3c3.3,0,5-2.1,5-6.4C171.2,56.4,169.5,54.3,166.2,54.2z M181.1,50.1h20.5
		c1.4-0.1,2.9,0.1,4.3,0.4c0.9,0.3,1.8,0.8,2.5,1.5c1.3,1.6,2,3.6,1.8,5.7v13.2h-5.6V58.6c0-0.7,0-1.4-0.1-2.1
		c-0.1-0.4-0.3-0.8-0.6-1.1c-0.7-0.6-1.7-1-2.6-0.9h-3v16.4h-5.6V54.6h-6v16.4h-5.6V50.1L181.1,50.1z M93.7,60.5l-8.1-10.7H92
		l4.8,7.1l5.2-7.1h6.3l-8.3,10.7l8.3,10.9h-6.1L96.8,64l-5.3,7.4h-6.2L93.7,60.5z M116.5,53.7h-9.4l3.3-3.8h19.5v3.8h-8.1v17.7h-5.2
		L116.5,53.7L116.5,53.7z"/>
	<path id="形状_519" class="st1" d="M56.3,80.3c-11.2,0.1-20.4-9-20.5-20.2c-0.1-11.2,9-20.4,20.2-20.5
		c11.2-0.1,20.4,8.9,20.5,20.2V60C76.5,71.2,67.5,80.3,56.3,80.3z M56.3,42.7c-9.6-0.1-17.3,7.6-17.4,17.2
		c-0.1,9.6,7.6,17.3,17.2,17.4c9.6,0.1,17.3-7.6,17.4-17.2V60C73.5,50.5,65.9,42.8,56.3,42.7L56.3,42.7z M57.1,57.2l3.9-4.8
		c0.4-0.5,0.3-1.2-0.2-1.7c-0.2-0.2-0.5-0.3-0.7-0.3l0,0c-0.3,0-0.7,0.2-0.9,0.4l-3.6,4.4l-3.6-4.4c-0.2-0.3-0.5-0.4-0.9-0.4h-3
		c-0.6,0-1.2,0.5-1.2,1.2c0,0.3,0.1,0.5,0.3,0.7l5.4,6.6l-6.9,8.4c-0.4,0.5-0.4,1.2,0.1,1.6c0.5,0.4,1.2,0.4,1.6-0.1l0,0l6.6-8.1
		L57.1,57.2z M66.1,50.5c-0.3,0-0.7,0.2-0.9,0.4L58.6,59l-3,3.7l-3.9,4.8c-0.4,0.5-0.4,1.2,0.1,1.6c0.5,0.4,1.2,0.4,1.6-0.1l3.6-4.4
		l3.6,4.4c0.2,0.3,0.5,0.4,0.9,0.4h3c0.6,0,1.2-0.5,1.2-1.2c0-0.3-0.1-0.5-0.3-0.7l-5.4-6.6l6.9-8.4c0.4-0.5,0.3-1.2-0.2-1.7
		C66.6,50.6,66.4,50.6,66.1,50.5"/>
</g>
</svg>
